<svg enable-background="new 0 0 380 58" viewBox="0 0 380 58" xmlns="http://www.w3.org/2000/svg"><g fill="#e63c2f"><path d="m129 19.6h3.8c.7 0 1.3-.2 1.6-.5s.5-.8.5-1.5v-2c0-.7-.2-1.2-.5-1.5s-.9-.4-1.7-.4h-3.7c-.2 0-.4.1-.4.4v5.2c0 .2.2.3.4.3m0-9.6h3.5c.7 0 1.3-.2 1.6-.5s.5-.8.5-1.5v-1.3c0-.7-.2-1.2-.5-1.5s-.9-.5-1.6-.5h-3.5c-.2 0-.4.1-.4.4v4.6c0 .2.2.3.4.3m-4.7 12.5v-20.8c0-.5.2-.7.7-.7h8.1c1.8 0 3.2.5 4.1 1.5 1 1 1.5 2.4 1.5 4.1v1.4c0 2-.9 3.2-2.7 3.8.9.1 1.6.5 2.2 1.1.5.6.8 1.5.8 2.6v2.1c0 1.8-.5 3.2-1.5 4.1-1 1-2.3 1.5-4.1 1.5h-8.5c-.3.1-.6-.2-.6-.7"/><path d="m147.3 1.7v20.8c0 .5-.2.7-.7.7h-2.9c-.5 0-.7-.2-.7-.7v-20.8c0-.5.2-.7.7-.7h2.9c.5 0 .7.3.7.7"/><path d="m163.7 23.3h-11.1c-.5 0-.7-.2-.7-.7v-20.9c0-.5.2-.7.7-.7h2.9c.5 0 .7.2.7.7v17.3c0 .3.1.4.4.4h7.1c.5 0 .7.3.7.8v2.4c-.1.4-.3.7-.7.7"/><path d="m172.4 19.4h3.7c.7 0 1.2-.2 1.5-.5s.5-.8.5-1.6v-10.4c0-.7-.2-1.3-.5-1.6s-.8-.5-1.5-.5h-3.7c-.2 0-.4.1-.4.4v13.9c0 .2.2.3.4.3m-4.7 3.1v-20.8c0-.5.2-.7.7-.7h8.4c1.8 0 3.1.5 4.1 1.5s1.5 2.4 1.5 4.2v11c0 1.8-.5 3.2-1.5 4.2s-2.4 1.5-4.1 1.5h-8.4c-.4-.1-.7-.4-.7-.9"/><path d="m197.7 1h2.8c.5 0 .7.2.7.7v15.9c0 1.8-.5 3.2-1.5 4.2s-2.4 1.5-4.1 1.5h-3.6c-1.8 0-3.2-.5-4.1-1.5-1-1-1.5-2.4-1.5-4.2v-15.9c0-.5.2-.7.7-.7h2.9c.5 0 .7.2.7.7v15.7c0 .7.2 1.3.5 1.6s.8.5 1.5.5h2.3c.7 0 1.2-.2 1.5-.5s.5-.8.5-1.6v-15.7c0-.4.3-.7.7-.7"/><path d="m209.1 23.3h-2.8c-.5 0-.7-.2-.7-.7v-20.9c0-.5.2-.7.7-.7h2.5c.5 0 .8.2.9.5l6.8 13.1h.1v-12.9c0-.5.2-.7.7-.7h2.8c.5 0 .7.2.7.7v20.8c0 .5-.2.7-.7.7h-2.5c-.5 0-.9-.2-1.1-.7l-6.5-12.8h-.1v12.8c-.1.5-.3.8-.8.8"/><path d="m234.3 23.3h-3.6c-1.8 0-3.2-.5-4.1-1.5-1-1-1.5-2.4-1.5-4.2v-11c0-1.8.5-3.2 1.5-4.2s2.3-1.5 4.1-1.5h3.6c1.8 0 3.1.5 4.1 1.5s1.5 2.4 1.5 4.2v1c0 .5-.2.8-.7.8h-2.9c-.5 0-.7-.3-.7-.8v-.7c0-.7-.1-1.3-.4-1.6s-.8-.5-1.5-.5h-2.2c-.7 0-1.2.2-1.5.5s-.5.8-.5 1.6v10.5c0 .7.2 1.3.5 1.6s.8.5 1.5.5h2.2c.7 0 1.2-.2 1.5-.5s.4-.8.4-1.6v-2.2c0-.3-.1-.4-.4-.4h-2c-.5 0-.7-.2-.7-.7v-2.4c0-.5.2-.7.7-.7h5.9c.5 0 .8.3.8.8v5.8c0 1.8-.5 3.2-1.5 4.2-.9 1-2.3 1.5-4.1 1.5"/><path d="m257.1 19.6h3.8c.7 0 1.3-.2 1.6-.5s.5-.8.5-1.5v-2c0-.7-.2-1.2-.5-1.5s-.9-.4-1.7-.4h-3.7c-.2 0-.4.1-.4.4v5.2c.1.2.2.3.4.3m0-9.6h3.5c.7 0 1.3-.2 1.6-.5s.5-.8.5-1.5v-1.3c0-.7-.2-1.2-.5-1.5s-.9-.5-1.6-.5h-3.5c-.2 0-.4.1-.4.4v4.6c.1.2.2.3.4.3m-4.6 12.5v-20.8c0-.5.2-.7.7-.7h8.1c1.8 0 3.2.5 4.1 1.5 1 1 1.5 2.4 1.5 4.1v1.4c0 2-.9 3.2-2.7 3.8.9.1 1.6.5 2.2 1.1.5.6.8 1.5.8 2.6v2.1c0 1.8-.5 3.2-1.5 4.1-1 1-2.3 1.5-4.1 1.5h-8.5c-.4.1-.6-.2-.6-.7"/><path d="m283 23.3h-11c-.5 0-.7-.2-.7-.7v-20.9c0-.5.2-.7.7-.7h11c.5 0 .7.2.7.7v2.4c0 .5-.2.7-.7.7h-7c-.3 0-.4.1-.4.4v4.5c0 .3.1.4.4.4h5.8c.5 0 .7.2.7.7v2.4c0 .5-.2.7-.7.7h-5.8c-.3 0-.4.1-.4.4v4.8c0 .3.1.4.4.4h7.1c.5 0 .7.2.7.7v2.4c-.1.4-.3.7-.8.7"/><path d="m292.3 11.5h3.3c.7 0 1.3-.2 1.6-.5s.5-.8.5-1.5v-2.6c0-.7-.2-1.2-.5-1.6-.3-.3-.9-.5-1.6-.5h-3.3c-.2 0-.4.1-.4.4v5.9c.1.3.2.4.4.4m-1.1 11.8h-2.9c-.5 0-.7-.2-.7-.7v-20.9c0-.5.2-.7.7-.7h8.1c1.8 0 3.1.5 4.1 1.5s1.5 2.4 1.5 4.2v2.7c0 2.6-1 4.3-3 5.2v.1l3.6 7.7c.2.6 0 .8-.6.8h-2.7c-.4 0-.7 0-.9-.1s-.3-.3-.4-.6l-3.4-7.5h-2.3c-.3 0-.4.1-.4.4v7.1c.1.5-.2.8-.7.8"/><path d="m310 23.3h-2.8c-.5 0-.7-.2-.7-.7v-20.9c0-.5.2-.7.7-.7h2.5c.5 0 .8.2.9.5l6.8 13.1h.1v-12.9c0-.5.2-.7.7-.7h2.8c.5 0 .7.2.7.7v20.8c0 .5-.2.7-.7.7h-2.5c-.5 0-.9-.2-1.1-.7l-6.8-12.9h-.1v12.8c.2.6 0 .9-.5.9"/><path d="m128 54h-2.9c-.5 0-.7-.2-.7-.7v-20.8c0-.5.2-.7.7-.7h10.8c.5 0 .7.2.7.7v2.4c0 .5-.2.7-.7.7h-6.8c-.3 0-.4.1-.4.4v5.4c0 .3.1.4.4.4h5.8c.5 0 .7.2.7.7v2.3c0 .5-.2.8-.7.8h-5.8c-.3 0-.4.1-.4.4v7.4c0 .4-.2.6-.7.6"/><path d="m145.8 50.2h2.4c.7 0 1.2-.2 1.5-.5s.5-.8.5-1.6v-10.5c0-.7-.2-1.3-.5-1.6s-.8-.5-1.5-.5h-2.4c-.7 0-1.2.2-1.5.5s-.4.8-.4 1.6v10.5c0 .7.1 1.3.4 1.6.3.4.8.5 1.5.5m3.1 3.8h-3.8c-1.8 0-3.2-.5-4.1-1.5-1-1-1.5-2.4-1.5-4.2v-11c0-1.8.5-3.2 1.5-4.2s2.3-1.5 4.1-1.5h3.8c1.8 0 3.2.5 4.1 1.5 1 1 1.5 2.4 1.5 4.2v11c0 1.8-.5 3.2-1.5 4.2-.9 1-2.3 1.5-4.1 1.5"/><path d="m163.3 42.3h3.3c.7 0 1.3-.2 1.6-.5s.5-.8.5-1.5v-2.7c0-.7-.2-1.2-.5-1.6-.3-.3-.9-.5-1.6-.5h-3.3c-.2 0-.4.1-.4.4v5.9c.1.4.2.5.4.5m-1 11.7h-2.9c-.5 0-.7-.2-.7-.7v-20.8c0-.5.2-.7.7-.7h8.1c1.8 0 3.1.5 4.1 1.5s1.5 2.4 1.5 4.2v2.7c0 2.6-1 4.3-3 5.2v.1l3.6 7.7c.2.6 0 .8-.6.8h-2.7c-.4 0-.7 0-.9-.1s-.3-.3-.4-.6l-3.4-7.5h-2.3c-.3 0-.4.1-.4.4v7.1c0 .5-.3.7-.7.7"/><path d="m192 31.8h5c.5 0 .7.2.7.7v20.8c0 .5-.2.7-.7.7h-2.8c-.5 0-.7-.2-.7-.7v-16.4h-.1l-3.5 11.6c-.1.5-.4.7-.8.7h-2.8c-.4 0-.7-.2-.8-.7l-3.5-11.6h-.1v16.4c0 .3 0 .5-.1.6s-.3.2-.6.2h-2.8c-.5 0-.7-.2-.7-.7v-20.9c0-.5.2-.7.7-.7h5c.3 0 .5.2.6.5l3.6 12.2h.2l3.6-12.2c0-.3.2-.5.6-.5"/><path d="m209.9 36-2.4 10h5l-2.5-10zm-5 18h-3.3c-.4 0-.5-.2-.4-.7l5.4-20.8c.2-.5.5-.7 1-.7h4.5c.6 0 .9.2 1 .7l5.4 20.8c.1.5 0 .7-.4.7h-3.3c-.2 0-.4-.1-.5-.2s-.2-.3-.2-.6l-.9-3.8h-6.6l-.9 3.8c0 .3-.1.5-.2.6-.2.2-.3.2-.6.2"/><path d="m227.4 54h-2.8c-.5 0-.7-.2-.7-.7v-17.3c0-.3-.1-.4-.4-.4h-3.9c-.5 0-.7-.2-.7-.7v-2.4c0-.5.2-.7.7-.7h12.8c.5 0 .7.2.7.7v2.4c0 .5-.2.7-.7.7h-3.9c-.3 0-.4.1-.4.4v17.3c0 .5-.2.7-.7.7"/><path d="m240.8 32.5v20.8c0 .5-.2.7-.7.7h-2.9c-.5 0-.7-.2-.7-.7v-20.8c0-.5.2-.7.7-.7h2.9c.5 0 .7.2.7.7"/><path d="m251.3 50.2h2.4c.7 0 1.2-.2 1.5-.5s.5-.8.5-1.6v-10.5c0-.7-.2-1.3-.5-1.6s-.8-.5-1.5-.5h-2.4c-.7 0-1.2.2-1.5.5s-.4.8-.4 1.6v10.5c0 .7.1 1.3.4 1.6.3.4.8.5 1.5.5m3.2 3.8h-3.8c-1.8 0-3.2-.5-4.1-1.5-1-1-1.5-2.4-1.5-4.2v-11c0-1.8.5-3.2 1.5-4.2s2.4-1.5 4.1-1.5h3.8c1.8 0 3.2.5 4.1 1.5 1 1 1.5 2.4 1.5 4.2v11c0 1.8-.5 3.2-1.5 4.2s-2.4 1.5-4.1 1.5"/><path d="m267.7 54h-2.8c-.5 0-.7-.2-.7-.7v-20.8c0-.5.2-.7.7-.7h2.5c.5 0 .8.2.9.5l6.8 13.1h.1v-12.9c0-.5.2-.7.7-.7h2.8c.5 0 .7.2.7.7v20.8c0 .5-.2.7-.7.7h-2.5c-.5 0-.9-.2-1.1-.7l-6.8-12.9h-.1v12.8c.2.6 0 .8-.5.8"/><path d="m297.4 50.4h3.8c.7 0 1.3-.2 1.6-.5s.5-.8.5-1.5v-2c0-.7-.2-1.2-.5-1.5s-.9-.5-1.7-.5h-3.7c-.2 0-.4.1-.4.4v5.2c0 .2.1.4.4.4m0-9.6h3.5c.7 0 1.3-.2 1.6-.5s.5-.8.5-1.5v-1.3c0-.7-.2-1.2-.5-1.5s-.9-.5-1.6-.5h-3.5c-.2 0-.4.1-.4.4v4.6c0 .2.1.3.4.3m-4.7 12.5v-20.8c0-.5.2-.7.7-.7h8.1c1.8 0 3.2.5 4.1 1.5 1 1 1.5 2.4 1.5 4.1v1.4c0 2-.9 3.2-2.7 3.8.9.1 1.6.5 2.2 1.1.5.6.8 1.5.8 2.6v2.1c0 1.8-.5 3.2-1.5 4.1-1 1-2.3 1.5-4.1 1.5h-8.5c-.4 0-.6-.2-.6-.7"/><path d="m323.3 54h-11.1c-.5 0-.7-.2-.7-.7v-20.8c0-.5.2-.7.7-.7h11.1c.5 0 .7.2.7.7v2.4c0 .5-.2.7-.7.7h-7.1c-.3 0-.4.1-.4.4v4.5c0 .3.1.4.4.4h5.8c.5 0 .7.2.7.7v2.4c0 .5-.2.7-.7.7h-5.8c-.3 0-.4.1-.4.4v4.8c0 .3.1.4.4.4h7.1c.5 0 .7.2.7.7v2.4c-.1.4-.3.6-.7.6"/><path d="m332.4 42.3h3.3c.7 0 1.3-.2 1.6-.5s.5-.8.5-1.5v-2.7c0-.7-.2-1.2-.5-1.6-.3-.3-.9-.5-1.6-.5h-3.3c-.2 0-.4.1-.4.4v5.9c0 .4.1.5.4.5m-1.1 11.7h-2.9c-.5 0-.7-.2-.7-.7v-20.8c0-.5.2-.7.7-.7h8.1c1.8 0 3.1.5 4.1 1.5s1.5 2.4 1.5 4.2v2.7c0 2.6-1 4.3-3 5.2v.1l3.6 7.7c.2.6 0 .8-.6.8h-2.7c-.4 0-.7 0-.9-.1s-.3-.3-.4-.6l-3.4-7.5h-2.3c-.3 0-.4.1-.4.4v7.1c0 .5-.3.7-.7.7"/><path d="m350.1 54h-2.8c-.5 0-.7-.2-.7-.7v-20.8c0-.5.2-.7.7-.7h2.5c.5 0 .8.2.9.5l6.8 13.1h.1v-12.9c0-.5.2-.7.7-.7h2.8c.5 0 .7.2.7.7v20.8c0 .5-.2.7-.7.7h-2.5c-.5 0-.9-.2-1.1-.7l-6.8-12.9h-.1v12.8c.2.6-.1.8-.5.8"/><path d="m378.1 54h-11.1c-.5 0-.7-.2-.7-.7v-20.8c0-.5.2-.7.7-.7h11.1c.5 0 .7.2.7.7v2.4c0 .5-.2.7-.7.7h-7.1c-.3 0-.4.1-.4.4v4.5c0 .3.1.4.4.4h5.8c.5 0 .7.2.7.7v2.4c0 .5-.2.7-.7.7h-5.8c-.3 0-.4.1-.4.4v4.8c0 .3.1.4.4.4h7.1c.5 0 .7.2.7.7v2.4c0 .4-.2.6-.7.6"/><path d="m7.2 12.1h2.8c1 0 1.5-.5 1.5-1.5v-1.1c.1-1-.5-1.5-1.5-1.5h-2.8c-.1 0-.1.1-.1.2v3.7c0 .1 0 .2.1.2m0-5.1h2.7c1 0 1.5-.5 1.5-1.5v-.9c0-1-.5-1.5-1.5-1.5h-2.7c-.1 0-.2.1-.2.2v3.5c.1.1.1.2.2.2m-1.4 5.9v-10.6c0-.2.1-.3.2-.3h4.1c.8 0 1.4.2 1.9.7.5.4.7 1.1.7 1.9v1c0 1-.5 1.7-1.5 2 .4 0 .8.2 1.1.6s.5.8.5 1.4v1.2c0 .8-.2 1.4-.7 1.9-.5.4-1.1.7-1.9.7h-4.2c-.1-.2-.2-.3-.2-.5"/><path d="m16.4 8.4h3.7c.1 0 .2-.1.2-.2v-1.3c0-1-.5-1.5-1.5-1.5h-1.2c-1 0-1.5.5-1.5 1.5v1.3c.1.2.2.2.3.2m4.8 4.8h-3.7c-.8 0-1.4-.2-1.9-.7-.4-.5-.6-1.1-.6-1.9v-3.7c0-.8.2-1.4.7-1.9.5-.4 1.1-.7 1.9-.7h1.4c.8 0 1.4.2 1.9.7.4.5.7 1.1.7 1.9v2.2c0 .2-.1.3-.2.3h-4.9c-.1 0-.2.1-.2.2v1.1c0 1 .5 1.5 1.5 1.5h3.5c.2 0 .2.1.2.2v.6c-.1.1-.2.2-.3.2"/><path d="m24.6 13.2h-.8c-.2 0-.2-.1-.2-.2v-8.4c0-.2.1-.2.2-.2h.8c.2 0 .2.1.2.2v.7h.2c.1-.3.3-.5.7-.7.3-.2.7-.3 1.1-.3h.7c.2 0 .2.1.2.2v.6c0 .1 0 .1-.1.2 0 0-.1.1-.2 0h-.9c-.5 0-.9.2-1.2.5s-.4.7-.4 1.3v5.7c0 .3-.1.4-.3.4"/><path d="m32.6 13.2h-1c-.8 0-1.4-.2-1.8-.7s-.7-1.1-.7-1.9v-6c0-.2.1-.2.2-.2h.8c.2 0 .2.1.2.2v6c0 1 .5 1.5 1.4 1.5h1c.5 0 .9-.1 1.2-.4s.4-.7.4-1.2v-5.9c0-.2.1-.2.2-.2h.8c.2 0 .2.1.2.2v8.3c0 .2-.1.2-.2.2h-.8c-.2 0-.2-.1-.2-.2v-.7h-.1c-.1.6-.7 1-1.6 1"/><path d="m40.3 4.3h1.5c.2 0 .3.1.3.2v.6c0 .2-.1.2-.3.2h-1.5c-.1 0-.2.1-.2.2v7.3c0 .2-.1.2-.3.2h-.8c-.2 0-.2-.1-.2-.2v-7.2c0-.1-.1-.2-.2-.2h-1c-.2 0-.2-.1-.2-.2v-.6c0-.1.1-.2.2-.2h1c.1 0 .2-.1.2-.2v-.7c0-.8.2-1.4.6-1.9.4-.4 1-.7 1.8-.7h.6c.2 0 .2.1.2.2v.6c0 .2-.1.2-.2.2h-.4c-.5 0-.8.1-1 .4-.2.2-.3.6-.3 1.1v.6c0 .3.1.3.2.3"/><path d="m46.5 13.2h-3.1c-.2 0-.2-.1-.2-.2v-.6c0-.2.1-.2.2-.2h2.9c.9 0 1.3-.3 1.3-1v-.3c0-.6-.3-1-.9-1.3l-2-.9c-.6-.2-1-.5-1.3-.9-.3-.3-.4-.8-.4-1.3 0-1.4.8-2.1 2.3-2.1h2.8c.2 0 .2.1.2.2v.6c0 .2-.1.2-.2.2h-2.6c-.4 0-.7.1-.9.3s-.3.4-.3.6v.3c0 .5.3.9 1 1.1l2 .9c.6.2 1 .5 1.2.9s.3.9.3 1.6c.2 1.4-.6 2.1-2.3 2.1"/><path d="m50.4 4.3h.8c.2 0 .2.1.3.2l2.1 7.3h.1l2.1-7.3c0-.2.1-.2.3-.2h.8c.2 0 .2.1.2.2l-2.5 8.3c0 .2-.1.3-.3.3h-1.3c-.2 0-.3-.1-.3-.3l-2.5-8.3c-.1-.1 0-.2.2-.2"/><path d="m59.7 8.4h3.7c.1 0 .2-.1.2-.2v-1.3c0-1-.5-1.5-1.5-1.5h-1.1c-1 0-1.5.5-1.5 1.5v1.3c.1.2.1.2.2.2m4.8 4.8h-3.7c-.8 0-1.4-.2-1.9-.7-.5-.4-.7-1.1-.7-1.9v-3.7c0-.8.2-1.4.7-1.9.5-.4 1.1-.7 1.9-.7h1.5c.8 0 1.4.2 1.9.7.4.5.7 1.1.7 1.9v2.2c0 .2-.1.3-.2.3h-4.9c-.1 0-.2.1-.2.2v1.1c0 1 .5 1.5 1.5 1.5h3.5c.2 0 .2.1.2.2v.6c0 .1-.1.2-.3.2"/><path d="m68 13.2h-.8c-.2 0-.2-.1-.2-.2v-8.4c0-.2.1-.2.2-.2h.8c.2 0 .2.1.2.2v.7h.1c.1-.3.4-.5.7-.7s.7-.3 1.1-.3h.7c.2 0 .2.1.2.3v.6c0 .1 0 .1-.1.2 0 0-.1.1-.2 0h-.9c-.5 0-.9.2-1.2.5s-.4.7-.4 1.3v5.7c.1.2 0 .3-.2.3"/><path d="m74 12h2.5c1 0 1.5-.5 1.5-1.5v-3.7c0-1-.5-1.5-1.5-1.5h-1c-.5 0-.9.1-1.2.4s-.5.7-.5 1.2v5c0 .1.1.1.2.1m-1.4.9v-11.7c0-.2.1-.2.2-.2h.8c.2 0 .2.1.2.2v3.9h.1c.3-.6.9-.9 1.8-.9h1c.8 0 1.4.2 1.9.7.4.5.6 1.1.6 1.9v3.8c0 .8-.2 1.4-.7 1.9s-1.1.7-1.9.7h-3.8c-.1 0-.2-.1-.2-.3"/><path d="m86.5 10.5v-4.9c0-.1-.1-.2-.2-.2h-2.4c-1 0-1.4.5-1.4 1.5v3.6c0 1 .5 1.5 1.4 1.5h1c.5 0 .9-.1 1.2-.4.3-.2.4-.6.4-1.1m-1.8 2.7h-.9c-.8 0-1.4-.2-1.9-.7-.5-.4-.7-1.1-.7-1.9v-3.7c0-.8.2-1.4.7-1.9.5-.4 1.1-.7 1.9-.7h3.8c.2 0 .2.1.2.2v8.3c0 .2-.1.2-.2.2h-.8c-.2 0-.2-.1-.2-.2v-.7h-.1c-.3.7-.9 1.1-1.8 1.1"/><path d="m91.2 13.2h-.8c-.2 0-.2-.1-.2-.2v-8.4c0-.2.1-.2.2-.2h.8c.2 0 .2.1.2.2v.7h.1c.3-.6.9-.9 1.8-.9h1c.8 0 1.4.2 1.8.7s.7 1.1.7 1.9v6c0 .2-.1.2-.2.2h-.8c-.2 0-.2-.1-.2-.2v-6c0-1-.5-1.5-1.5-1.5h-1c-.5 0-.9.1-1.2.4s-.4.7-.4 1.2v5.9c-.1.1-.2.2-.3.2"/><path d="m104.2 10.5v-3.5c0-.5-.1-.9-.4-1.2s-.7-.4-1.2-.4h-1.1c-1 0-1.4.5-1.4 1.5v3.6c0 1 .5 1.5 1.4 1.5h1.1c.5 0 .9-.1 1.2-.4.3-.2.4-.6.4-1.1m-1.9 2.7h-1c-.8 0-1.4-.2-1.8-.7-.4-.4-.7-1.1-.7-1.9v-3.7c0-.8.2-1.4.7-1.9.4-.4 1-.7 1.8-.7h1c.9 0 1.5.3 1.8.9h.1v-4c0-.2.1-.2.2-.2h.8c.1 0 .2.1.2.2v11.7c0 .2-.1.2-.2.2h-.8c-.2 0-.2-.1-.2-.2v-.7h-.1c-.3.6-.9 1-1.8 1"/><path d="m31.5 23.9-1.8 6h3.6zm-3.1 9.8h-.9c-.1 0-.2-.1-.2-.2l3.2-10.6c0-.2.2-.2.3-.2h1.2c.2 0 .3.1.3.2l3.2 10.6c0 .2 0 .2-.2.2h-.9c-.1 0-.2-.1-.2-.2l-.8-2.5h-4.2l-.8 2.5c.2.1.1.2 0 .2"/><path d="m40.4 33.7h-3.1c-.2 0-.2-.1-.2-.2v-.6c0-.2.1-.2.2-.2h2.9c.9 0 1.3-.3 1.3-1v-.3c0-.6-.3-1-.9-1.3l-2-.9c-.6-.2-1-.5-1.3-.9-.2-.3-.3-.8-.3-1.3 0-1.4.8-2.1 2.3-2.1h2.8c.2 0 .2.1.2.2v.6c0 .2-.1.2-.2.2h-2.6c-.4 0-.7.1-.9.3s-.3.4-.3.6v.3c0 .5.3.9 1 1.1l2 .9c.6.2 1 .5 1.2.9s.3.9.3 1.6c0 1.4-.8 2.1-2.4 2.1"/><path d="m47.9 33.7h-3.1c-.2 0-.2-.1-.2-.2v-.6c0-.2.1-.2.2-.2h2.9c.9 0 1.3-.3 1.3-1v-.3c0-.6-.3-1-.9-1.3l-2-.9c-.6-.2-1-.5-1.3-.9-.3-.3-.4-.8-.4-1.3 0-1.4.8-2.1 2.3-2.1h2.8c.2 0 .2.1.2.2v.6c0 .2-.1.2-.2.2h-2.5c-.4 0-.7.1-.9.3s-.3.4-.3.6v.3c0 .5.3.9 1 1.1l2 .9c.6.2 1 .5 1.2.9s.3.9.3 1.6c0 1.4-.8 2.1-2.4 2.1"/><path d="m54.9 32.6h1.2c1 0 1.5-.5 1.5-1.5v-3.6c0-1-.5-1.5-1.5-1.5h-1.2c-1 0-1.5.5-1.5 1.5v3.6c0 1 .5 1.5 1.5 1.5m1.3 1.1h-1.5c-.8 0-1.4-.2-1.9-.7-.5-.4-.7-1.1-.7-1.9v-3.7c0-.8.2-1.4.7-1.9.5-.4 1.1-.7 1.9-.7h1.5c.8 0 1.4.2 1.9.7s.7 1.1.7 1.9v3.7c0 .8-.2 1.4-.7 1.9s-1.1.7-1.9.7"/><path d="m66.1 32.8v.6c0 .1-.1.2-.2.2h-2.5c-.8 0-1.4-.2-1.9-.7-.5-.4-.7-1.1-.7-1.9v-3.7c0-.8.2-1.4.7-1.9.5-.4 1.1-.7 1.9-.7h2.5c.2 0 .2.1.2.2v.6c0 .1-.1.2-.2.2h-2.4c-1 0-1.4.5-1.4 1.5v3.6c0 1 .5 1.5 1.4 1.5h2.4c.2.3.2.4.2.5"/><path d="m68 33.5v-8.3c0-.2.1-.2.2-.2h.8c.2 0 .2.1.2.2v8.3c0 .2-.1.2-.2.2h-.8c-.1 0-.2-.1-.2-.2m0-10.1v-1.6c0-.2.1-.2.2-.2h.8c.2 0 .2.1.2.2v1.6c0 .2-.1.2-.2.2h-.8c-.1.1-.2 0-.2-.2"/><path d="m76.8 31v-4.9c0-.1-.1-.2-.2-.2h-2.4c-1 0-1.4.5-1.4 1.5v3.6c0 1 .5 1.5 1.4 1.5h1c.5 0 .9-.1 1.2-.4.3-.2.4-.6.4-1.1m-1.8 2.7h-.9c-.8 0-1.4-.2-1.9-.7-.5-.4-.7-1.1-.7-1.9v-3.7c0-.8.2-1.4.7-1.9.5-.4 1.1-.7 1.9-.7h3.8c.2 0 .2.1.2.2v8.3c0 .2-.1.2-.2.2h-.8c-.2 0-.2-.1-.2-.2v-.7h-.1c-.3.8-.9 1.1-1.8 1.1"/><path d="m80.8 26h-1c-.2 0-.2-.1-.2-.2v-.6c0-.2.1-.2.2-.2h1c.1 0 .2-.1.2-.2v-1.5c0-.2.1-.2.2-.2h.8c.2 0 .2.1.2.2v1.5c0 .1.1.2.2.2h1.8c.2 0 .3.1.3.2v.6c0 .1-.1.2-.3.2h-1.8c-.1 0-.2.1-.2.2v5c0 1 .5 1.5 1.5 1.5h.7c.2 0 .3.1.3.2v.6c0 .1-.1.2-.3.2h-.8c-.8 0-1.4-.2-1.9-.7-.5-.4-.7-1-.7-1.8v-5c0-.2-.1-.2-.2-.2"/><path d="m86.6 33.5v-8.3c0-.2.1-.2.2-.2h.8c.2 0 .2.1.2.2v8.3c0 .2-.1.2-.2.2h-.8c-.1 0-.2-.1-.2-.2m0-10.1v-1.6c0-.2.1-.2.2-.2h.8c.2 0 .2.1.2.2v1.6c0 .2-.1.2-.2.2h-.8c-.1.1-.2 0-.2-.2"/><path d="m92.9 32.6h1.2c1 0 1.5-.5 1.5-1.5v-3.6c0-1-.5-1.5-1.5-1.5h-1.2c-1 0-1.5.5-1.5 1.5v3.6c0 1 .5 1.5 1.5 1.5m1.3 1.1h-1.5c-.8 0-1.4-.2-1.9-.7-.5-.4-.7-1.1-.7-1.9v-3.7c0-.8.2-1.4.7-1.9.5-.4 1.1-.7 1.9-.7h1.5c.8 0 1.4.2 1.9.7s.7 1.1.7 1.9v3.7c0 .8-.2 1.4-.7 1.9s-1.1.7-1.9.7"/><path d="m100 33.7h-.8c-.2 0-.2-.1-.2-.2v-8.3c0-.2.1-.2.2-.2h.8c.2 0 .2.1.2.2v.7h.1c.3-.6.9-.9 1.8-.9h1c.8 0 1.4.2 1.8.7s.7 1.1.7 1.9v6c0 .2-.1.2-.2.2h-.8c-.2 0-.2-.1-.2-.2v-6c0-1-.5-1.5-1.5-1.5h-1c-.5 0-.9.1-1.2.4s-.4.7-.4 1.2v5.9c-.1 0-.1.1-.3.1"/><path d="m3.9 52.9h1c1 0 1.5-.5 1.5-1.5v-3.6c0-1-.5-1.5-1.5-1.5h-1c-.5 0-.9.1-1.2.4s-.4.7-.4 1.2v3.4c0 .5.1.9.4 1.2s.7.4 1.2.4m-1.9 3.6h-.8c-.2 0-.2-.1-.2-.2v-10.9c0-.2.1-.2.2-.2h.8c.2 0 .2.1.2.2v.7h.1c.3-.6.9-.9 1.8-.9h1c.8 0 1.4.2 1.8.7s.6 1.1.6 1.9v3.7c0 .8-.2 1.4-.6 1.9-.4.4-1 .7-1.8.7h-1c-.9 0-1.5-.3-1.8-.9v3.2c0 .1-.1.1-.3.1"/><path d="m10.8 54h-.8c-.2 0-.2-.1-.2-.2v-8.3c0-.2.1-.2.2-.2h.8c.2 0 .2.1.2.2v.7h.1c.1-.3.3-.5.7-.7.3-.2.7-.3 1.1-.3h.7c.2 0 .2.1.2.2v.6c0 .1 0 .1-.1.2 0 0-.1.1-.2 0h-.9c-.5 0-.9.2-1.2.5s-.4.7-.4 1.3v5.7c.1.2 0 .3-.2.3"/><path d="m17.9 52.9h1.2c1 0 1.5-.5 1.5-1.5v-3.6c0-1-.5-1.5-1.5-1.5h-1.2c-1 0-1.5.5-1.5 1.5v3.6c.1 1 .6 1.5 1.5 1.5m1.4 1.1h-1.5c-.8 0-1.4-.2-1.9-.7-.5-.4-.7-1.1-.7-1.9v-3.7c0-.8.2-1.4.7-1.9.5-.4 1.1-.7 1.9-.7h1.5c.8 0 1.4.2 1.9.7s.7 1.1.7 1.9v3.7c0 .8-.2 1.4-.7 1.9s-1.1.7-1.9.7"/><path d="m26.3 45.2h1.5c.2 0 .3.1.3.2v.6c0 .2-.1.2-.3.2h-1.5c-.1 0-.2.1-.2.2v7.3c0 .2-.1.2-.3.2h-.8c-.2 0-.2-.1-.2-.2v-7.3c0-.1-.1-.2-.2-.2h-1c-.2 0-.2-.1-.2-.2v-.6c0-.1.1-.2.2-.2h1c.1 0 .2-.1.2-.2v-.6c0-.8.2-1.4.6-1.9.4-.4 1-.7 1.8-.7h.6c.2 0 .2.1.2.2v.6c0 .2-.1.2-.2.2h-.4c-.5 0-.8.1-1 .4-.2.2-.3.6-.3 1.1v.7c0 .1.1.2.2.2"/><path d="m30.8 49.3h3.7c.1 0 .2-.1.2-.2v-1.3c0-1-.5-1.5-1.5-1.5h-1.2c-1 0-1.5.5-1.5 1.5v1.3c.1.1.2.2.3.2m4.8 4.7h-3.7c-.8 0-1.4-.2-1.9-.7-.5-.4-.7-1.1-.7-1.9v-3.7c0-.8.2-1.4.7-1.9.5-.4 1.1-.7 1.9-.7h1.5c.8 0 1.4.2 1.9.7.4.5.7 1.1.7 1.9v2.3c0 .2-.1.3-.2.3h-4.9c-.1 0-.2.1-.2.2v1.1c0 1 .5 1.5 1.5 1.5h3.5c.2 0 .2.1.2.2v.6c-.1 0-.2.1-.3.1"/><path d="m41 54h-3c-.2 0-.2-.1-.2-.2v-.6c0-.2.1-.2.2-.2h2.9c.9 0 1.3-.3 1.3-1v-.3c0-.6-.3-1-.9-1.3l-2-.9c-.6-.2-1-.5-1.3-.9-.3-.3-.4-.8-.4-1.3 0-1.4.8-2.1 2.3-2.1h2.8c.2 0 .2.1.2.2v.6c0 .2-.1.2-.2.2h-2.6c-.4 0-.7.1-.9.3s-.3.4-.3.6v.3c0 .5.3.9 1 1.1l2 .9c.6.2 1 .5 1.2.9s.3.9.3 1.6c.1 1.4-.7 2.1-2.4 2.1"/><path d="m48.5 54h-3.1c-.2 0-.2-.1-.2-.2v-.6c0-.2.1-.2.2-.2h2.9c.9 0 1.3-.3 1.3-1v-.3c0-.6-.3-1-.9-1.3l-2-.9c-.6-.2-1-.5-1.3-.9-.3-.3-.4-.8-.4-1.3 0-1.4.8-2.1 2.3-2.1h2.8c.2 0 .2.1.2.2v.6c0 .2-.1.2-.2.2h-2.6c-.4 0-.7.1-.9.3s-.3.4-.3.6v.3c0 .5.3.9 1 1.1l2 .9c.6.2 1 .5 1.2.9s.3.9.3 1.6c.2 1.4-.6 2.1-2.3 2.1"/><path d="m53.1 53.8v-8.3c0-.2.1-.2.2-.2h.8c.2 0 .2.1.2.2v8.3c0 .2-.1.2-.2.2h-.8c-.1 0-.2-.1-.2-.2m0-10.1v-1.6c0-.2.1-.2.2-.2h.8c.2 0 .2.1.2.2v1.6c0 .2-.1.2-.2.2h-.8c-.1.1-.2 0-.2-.2"/><path d="m59.4 52.9h1.2c1 0 1.5-.5 1.5-1.5v-3.6c0-1-.5-1.5-1.5-1.5h-1.2c-1 0-1.5.5-1.5 1.5v3.6c0 1 .5 1.5 1.5 1.5m1.3 1.1h-1.5c-.8 0-1.4-.2-1.9-.7-.5-.4-.7-1.1-.7-1.9v-3.7c0-.8.2-1.4.7-1.9.5-.4 1.1-.7 1.9-.7h1.5c.8 0 1.4.2 1.9.7s.7 1.1.7 1.9v3.7c0 .8-.2 1.4-.7 1.9s-1.1.7-1.9.7"/><path d="m66.5 54h-.8c-.2 0-.2-.1-.2-.2v-8.3c0-.2.1-.2.2-.2h.8c.2 0 .2.1.2.2v.7h.1c.3-.6.9-.9 1.8-.9h1c.8 0 1.4.2 1.8.7s.7 1.1.7 1.9v6c0 .2-.1.2-.2.2h-.9c-.2 0-.2-.1-.2-.2v-6c0-1-.5-1.5-1.5-1.5h-1c-.5 0-.9.1-1.2.4s-.4.7-.4 1.2v5.9s0 .1-.2.1"/><path d="m75.3 54h-.8c-.2 0-.2-.1-.2-.2v-8.3c0-.2.1-.2.2-.2h.8c.2 0 .2.1.2.2v.7h.1c.3-.6.9-.9 1.8-.9h1c.8 0 1.4.2 1.8.7s.7 1.1.7 1.9v6c0 .2-.1.2-.2.2h-.8c-.2 0-.2-.1-.2-.2v-6c0-1-.5-1.5-1.5-1.5h-1c-.5 0-.9.1-1.2.4s-.4.7-.4 1.2v5.9s-.1.1-.3.1"/><path d="m84.4 49.3h3.7c.1 0 .2-.1.2-.2v-1.3c0-1-.5-1.5-1.5-1.5h-1.2c-1 0-1.5.5-1.5 1.5v1.3c.1.1.2.2.3.2m4.8 4.7h-3.7c-.8 0-1.4-.2-1.9-.7-.5-.4-.7-1.1-.7-1.9v-3.7c0-.8.2-1.4.7-1.9.5-.4 1.1-.7 1.9-.7h1.5c.8 0 1.4.2 1.9.7.4.5.7 1.1.7 1.9v2.3c0 .2-.1.3-.2.3h-4.9c-.1 0-.2.1-.2.2v1.1c0 1 .5 1.5 1.5 1.5h3.5c.2 0 .2.1.2.2v.6s-.1.1-.3.1"/><path d="m92.8 54h-.8c-.2 0-.2-.1-.2-.2v-11.7c0-.2.1-.2.2-.2h.8c.2 0 .2.1.2.2v11.7c0 .1-.1.2-.2.2"/><path d="m96.6 54h-.8c-.2 0-.2-.1-.2-.2v-11.7c0-.2.1-.2.2-.2h.8c.2 0 .2.1.2.2v11.7c0 .1 0 .2-.2.2"/><path d="m100.6 49.3h3.7c.1 0 .2-.1.2-.2v-1.3c0-1-.5-1.5-1.5-1.5h-1.2c-1 0-1.5.5-1.5 1.5v1.3c.1.1.2.2.3.2m4.8 4.7h-3.7c-.8 0-1.4-.2-1.9-.7-.5-.4-.7-1.1-.7-1.9v-3.7c0-.8.2-1.4.7-1.9.5-.4 1.1-.7 1.9-.7h1.5c.8 0 1.4.2 1.9.7.4.5.7 1.1.7 1.9v2.3c0 .2-.1.3-.2.3h-4.9c-.1 0-.2.1-.2.2v1.1c0 1 .5 1.5 1.5 1.5h3.5c.2 0 .2.1.2.2v.6c-.1 0-.2.1-.3.1"/></g></svg>